<svg xmlns="http://www.w3.org/2000/svg" width="68.9" height="64.2" viewBox="0 0 68.9 64.2">
    <path fill="none" d="M20.4 24.9h21.2v24.5H20.4z"/>
    <text transform="translate(20.38 43.3)" fill="#FFF" font-family="'bebas_neuebold'" font-size="26.242">
        98
    </text>
    <path fill="none" d="M41.4 25.1h16.7v13.1H41.4z"/>
    <text transform="translate(41.4 36.984)" fill="#FFF" font-family="'bebas_neueregular'" font-size="16.93">
        %
    </text>
    <path fill="#DD2F26" d="M12.8 59.9c-1 0-2-.4-2.7-1.1-13.4-13.4-13.4-35.3 0-48.7 13.4-13.4 35.3-13.4 48.7 0 6.5 6.5 10.1 15.2 10.1 24.4s-3.6 17.9-10.1 24.4c-1.5 1.5-4 1.5-5.5 0s-1.5-4 0-5.5c5-5 7.8-11.7 7.8-18.9 0-7.1-2.8-13.8-7.8-18.9C42.9 5.2 26 5.2 15.6 15.6s-10.4 27.3 0 37.8c1.5 1.5 1.5 4 0 5.5-.8.7-1.8 1-2.8 1z"/>
    <path fill="#FFF" d="M58.7 10.1c-2.5-2.5-5.3-4.6-8.3-6.1-.4-.2-.9-.4-1.3-.6-.1 0-.2-.1-.3-.1-.4-.2-.7-.3-1.1-.5-.2-.1-.4-.2-.6-.2-.3-.1-.5-.2-.8-.3-.3-.1-.6-.2-.8-.3-.2-.1-.4-.1-.6-.2-.4-.1-.8-.2-1.1-.3-.1 0-.2 0-.3-.1-12.8-3.7-27.2.5-36 11.6-11.1 13.9-9.6 33.8 2.8 46 .7.6 1.6.9 2.5.9 1 0 2-.4 2.7-1.1 1.5-1.5 1.5-4 0-5.5C5.1 42.9 5.1 26 15.5 15.6c7.3-7.3 18-9.5 27.2-6.5.1 0 .2.1.3.1.3.1.5.2.8.3.2.1.4.1.6.2.2.1.3.1.5.2.3.1.6.2.8.4.1 0 .1.1.2.1 1.9.9 3.7 2 5.3 3.3 5.6 4.4 9.1 10.8 9.9 17.9.8 7.1-1.2 14.1-5.6 19.6-1.3 1.7-1.1 4.1.6 5.5 1.4 1.2 3.5 1.1 4.9 0 5.2-6.2 8-13.9 8-22.1-.2-9.4-3.8-18-10.3-24.5z"/>
    <path fill="#3DB54A" d="M34.7 54.9l-7.1 9.3h14.1z"/>
</svg>
