<svg xmlns="http://www.w3.org/2000/svg" width="54" height="54" viewBox="0 0 54 54">
    <g opacity=".5">
        <path fill="#8D9292" d="M27 53C12.6 53 1 41.4 1 27S12.6 1 27 1s26 11.6 26 26-11.6 26-26 26zm5.2-26c0-2.9-2.3-5.2-5.2-5.2s-5.2 2.3-5.2 5.2 2.3 5.2 5.2 5.2 5.2-2.3 5.2-5.2z"/>
        <path fill="#D3D3D3" d="M27 54C12.1 54 0 41.9 0 27S12.1 0 27 0s27 12.1 27 27-12.1 27-27 27zm0-52C13.2 2 2 13.2 2 27s11.2 25 25 25 25-11.2 25-25S40.8 2 27 2zm0 31.2c-3.4 0-6.2-2.8-6.2-6.2 0-3.4 2.8-6.2 6.2-6.2s6.2 2.8 6.2 6.2c0 3.4-2.8 6.2-6.2 6.2zm0-10.4c-2.3 0-4.2 1.9-4.2 4.2 0 2.3 1.9 4.2 4.2 4.2s4.2-1.9 4.2-4.2c0-2.3-1.9-4.2-4.2-4.2z"/>
    </g>
</svg>
