<svg xmlns="http://www.w3.org/2000/svg" width="51.8" height="51.8" viewBox="0 0 51.8 51.8">
    <g opacity=".8">
        <path fill="#B7B7B8" d="M28.7 3C16.1 1.5 4.6 10.5 3 23.1s7.5 24.2 20.1 25.7c12.6 1.5 24.2-7.5 25.7-20.1C50.4 16.1 41.3 4.6 28.7 3zm-4.6 37.9c-8.3-1-14.2-8.6-13.2-16.8s8.6-14.2 16.8-13.2c8.3 1 14.2 8.6 13.2 16.8s-8.6 14.2-16.8 13.2z"/>
        <path fill="#4D6060" d="M23.3 47.1C11.6 45.7 3.3 35 4.7 23.3s12.1-20 23.8-18.6 20 12.1 18.6 23.8c-1.4 11.7-12.1 20-23.8 18.6zm4.6-37.8c-9.2-1.1-17.6 5.4-18.7 14.6s5.4 17.6 14.6 18.7C33 43.7 41.4 37.2 42.5 28S37.1 10.4 27.9 9.3z"/>
        <g fill="#D3D3D3">
            <path d="M6.5 24.9c4-.3 6.4 4.1 3.9 7.3-.7.9-1.8 1.5-2.9 1.6-4 .3-6.4-4.1-3.9-7.3.7-1 1.8-1.5 2.9-1.6zM23.4 6.6c1 3.9-3 7-6.5 5.1-1-.5-1.8-1.5-2-2.6-1-3.9 3-7 6.5-5.1 1 .6 1.8 1.5 2 2.6zM11.6 12.7c3.3 2.4 2.2 7.3-1.7 8.1-1.1.2-2.3 0-3.3-.7-3.3-2.4-2.2-7.3 1.7-8.1 1.2-.3 2.4 0 3.3.7zM10.3 37.6c2.9-2.8 7.6-1 7.7 3.1 0 1.1-.4 2.3-1.2 3.1-2.9 2.8-7.6 1-7.7-3.1-.1-1.2.4-2.3 1.2-3.1zM21.3 45.1c.4-4 5.2-5.6 7.9-2.6.8.9 1.1 2 1 3.2-.4 4-5.2 5.6-7.9 2.6-.7-.9-1.1-2.1-1-3.2zM34.5 43.7c-2.3-3.4.4-7.6 4.4-7 1.1.2 2.2.8 2.8 1.8 2.3 3.4-.4 7.6-4.4 7-1.1-.3-2.2-.9-2.8-1.8zM43.8 34.1c-3.9-1.1-4.6-6.1-1.2-8.2 1-.6 2.2-.8 3.3-.5 3.9 1.1 4.6 6.1 1.2 8.2-1 .6-2.2.8-3.3.5zM44.7 20.7c-3.7 1.7-7.4-1.7-6.2-5.5.4-1.1 1.2-2 2.2-2.5 3.7-1.7 7.4 1.7 6.2 5.5-.3 1.1-1.2 2.1-2.2 2.5zM36.8 9.6c-1.8 3.6-6.8 3.5-8.3-.3-.4-1.1-.4-2.3.1-3.3 1.8-3.6 6.8-3.5 8.3.3.4 1.1.4 2.3-.1 3.3z"/>
        </g>
        <path fill="#4D6060" d="M22.8 51.6C8.6 49.9-1.5 36.9.2 22.8S14.9-1.5 29.1.2s24.3 14.7 22.6 28.9-14.8 24.3-28.9 22.5zm5.9-48.3C16.2 1.8 4.8 10.7 3.3 23.1S10.7 47 23.1 48.5C35.6 50 47 41.1 48.5 28.7c1.6-12.5-7.4-23.9-19.8-25.4z"/>
        <path fill="#4D6060" d="M27.8 10.7c-8.4-1-16 4.9-17 13.3s4.9 16 13.3 17 16-4.9 17-13.3c1-8.3-5-15.9-13.3-17zm-3.2 26.2c-6.1-.7-10.4-6.3-9.7-12.4.7-6.1 6.3-10.4 12.4-9.7 6.1.7 10.4 6.3 9.7 12.4-.8 6.2-6.3 10.5-12.4 9.7z"/>
    </g>
</svg>
