<svg xmlns="http://www.w3.org/2000/svg" width="87" height="46.6" viewBox="0 0 87 46.6">
    <g fill="#06A14B">
        <path d="M9.1 2.9c7.2-.5 15.9-.2 22.9 0 3.4.1 6.5.2 9.1.2 7.8 0 14.9.4 22 4.6 1.9 1.1 3.6 2.7 5.3 4.3 2 1.9 4 3.8 6.5 5 4.8 2.3 7.2 3.1 12.1 3.1h.1v-1H87c-4.7 0-7-.7-11.7-3-2.3-1.1-4.3-3-6.3-4.8-1.7-1.6-3.5-3.2-5.4-4.4-7.3-4.4-14.5-4.7-22.5-4.7-2.5 0-5.7-.1-9-.2-7.2-.4-15.9-.6-23.1-.1L8.7 0 .4 3.6l9 1.1-.3-1.8zM81.7 25c-.8.1-1.7.3-2.9.4-4.2.5-7.6 2.6-10.9 5-4.3 3-8.1 5.2-12.4 5.7-3.4.4-6.9.4-10.3.3H18c-1.6 0-5.4 0-9.2-.2l.2-1.8-9 1.5L8.5 39l.2-1.9c3.8.2 7.6.2 9.3.2l23.1-.1h7.8c2.2 0 4.4-.1 6.6-.3 4.5-.6 8.4-2.7 12.9-5.9 3.2-2.3 6.5-4.3 10.5-4.8 1.2-.1 2.1-.3 2.9-.4 1.6-.2 2.7-.4 5.1-.4h.1v-1h-.1c-2.4.2-3.6.3-5.2.6z"/>
        <path d="M74.8 29.6c-2.4 1.2-4.5 3.1-6.5 5-1.7 1.6-3.4 3.2-5.3 4.3-7.1 4.2-14.1 4.6-22 4.6-2.5 0-5.7.1-9.1.2-7.1.2-15.8.5-22.9 0l.3-1.8-9 1.1 8.4 3.6.3-1.9c2.9.2 6.1.3 9.3.3 4.7 0 9.5-.2 13.8-.3 3.4-.1 6.5-.2 9-.2 8 0 15.2-.4 22.5-4.7 2-1.2 3.7-2.8 5.4-4.4 1.9-1.8 3.9-3.7 6.2-4.8 4.7-2.3 7-3 11.7-3h.1v-1h-.1c-4.9-.1-7.3.7-12.1 3zM81.8 20.5c-.8-.1-1.7-.3-2.9-.4-4-.5-7.3-2.5-10.5-4.8-4.5-3.1-8.4-5.3-12.9-5.9-3.5-.4-7-.4-10.4-.3H18c-1.3 0-5.3 0-9.3.2l-.2-1.9L0 10.6l9 1.5-.2-1.8c3.9-.2 7.9-.2 9.2-.2l23.1.1h4c3.4-.1 6.9-.1 10.3.3 4.3.5 8.1 2.7 12.4 5.7 3.3 2.3 6.7 4.5 10.9 5 1.2.1 2.1.3 2.9.4 1.6.3 2.8.4 5.3.4h.1v-1c-2.4-.1-3.6-.3-5.2-.5zM76.2 22.6h-2v-1.8l-8.7 2.3 8.7 2.4v-1.9H87v-1z"/>
    </g>
    <path fill="#8E9293" d="M64.9 20.4c-.3-.9-1.2-1.6-2.2-1.6v-1.3c0-.3-.2-.5-.5-.5h-4.1c-.3 0-.5.2-.5.5v1.1h-.8c.3 0 .5-.2.5-.5V15c0-.3-.2-.5-.5-.5H51c-.3 0-.5.2-.5.5v3.1c0 .3.2.5.5.5h-5c-.1 0-.2-.1-.2-.2v-3c0-.4-.3-.7-.7-.7H34.7c-.4 0-.7.3-.7.7v3c0 .1-.1.2-.2.2h-.9c.3 0 .5-.2.5-.5V15c0-.3-.2-.5-.5-.5h-5.8c-.3 0-.5.2-.5.5v3.1c0 .3.2.5.5.5H26c-.1 0-.2-.1-.2-.2v-3c0-.4-.3-.7-.7-.7H23l-.3-1.3h.1c.1 0 .2-.1.2-.2s-.1-.2-.2-.2h-4.3c-.1 0-.2.1-.2.2s.1.2.2.2h.1l.3 1.3h-4.3c-.4 0-.7.3-.7.7v3.4c0 .3.2.6.5.7h-2.2c-.3 0-.5.2-.5.5v1.1l-1.1.9H9c-.3 0-.5.2-.5.5v1.4c0 .3.2.5.5.5h1.5l1.2.9v1.1c0 .3.2.5.5.5h2.3c-.4 0-.7.3-.7.7V31c0 .4.3.7.7.7h4.3l-.3 1.3h-.1c-.1 0-.2.1-.2.2s.1.2.2.2h4.3c.1 0 .2-.1.2-.2s-.1-.2-.2-.2h-.1l.3-1.3H25c.4 0 .7-.3.7-.7v-3c0-.1.1-.2.2-.2h.9c-.2.1-.3.2-.3.4v3.1c0 .3.2.5.5.5h5.8c.3 0 .5-.2.5-.5v-3.1c0-.2-.1-.4-.3-.4h.7c.1 0 .2.1.2.2v3c0 .4.3.7.7.7h10.6c.4 0 .7-.3.7-.7v-3c0-.1.1-.2.2-.2h4.8c-.2.1-.3.2-.3.4v3.1c0 .3.2.5.5.5h5.8c.3 0 .5-.2.5-.5v-3.1c0-.2-.1-.4-.3-.4h.6v1.1c0 .3.2.5.5.5h4.1c.3 0 .5-.2.5-.5v-1.3c1 0 1.8-.6 2.1-1.5 0-.1 0-.1-.1-.1h-.4V20.8h.4c0-.3.1-.3.1-.4z"/>
</svg>
