<svg xmlns="http://www.w3.org/2000/svg" viewBox="0 0 113.2 14.2">
    <path fill="none" stroke="#9C9B9B" stroke-width=".5" stroke-miterlimit="10" d="M8.3 1.1l-.4 1-3.7 10c-.2.5-.8 1-1.4 1H.2l.4-1 3.7-10c.2-.5.8-1 1.4-1h2.6z"/>
    <path fill="#FFF" d="M75.1 7.1c-.5 1.4-1.1 2.4-1.8 2.9-.8.6-1.7.9-2.8.9h-2l2.8-7.7h2.3c1 0 1.6.3 1.9.9.2.7.1 1.7-.4 3m2.8-4.5c-.5-1-1.7-1.5-3.6-1.5h-3.4c-.3 0-.7.1-1 .4-.3.2-.6.5-.7.9l-3.4 9.4-.5 1.3h4c1.1 0 2-.1 2.6-.2.6-.2 1.3-.4 1.9-.8.8-.5 1.5-1.1 2.2-2 .6-.9 1.1-1.8 1.5-2.9.8-2.1.9-3.6.4-4.6M80.9 6.3h2.9c.6 0 1.1-.1 1.5-.4.4-.3.7-.6.9-1.2.2-.5.2-.9 0-1.2-.2-.3-.5-.4-1.1-.4h-3l-1.2 3.2zM76 13.1l3.9-10.7c.1-.4.4-.7.7-.9.3-.2.7-.4 1-.4h4.5c1.3 0 2.2.3 2.6.8.4.6.5 1.4 0 2.5-.3.7-.7 1.4-1.2 1.8-.4.5-1 .8-1.7 1 .5.2.7.5.8.8.1.3 0 .9-.3 1.8l-.3 1.6c-.1.1-.1.3-.2.5s-.1.3-.1.5c-.1.4 0 .7.1.8h-2.7c0-.2 0-.5.1-.7.1-.4.2-.6.2-.8l.4-1.3c.2-.7.2-1.2.1-1.5-.2-.3-.6-.4-1.2-.4h-2.6l-1.7 4.7H76zM86.5 13.1l3.8-10.7c.1-.4.4-.7.7-.9.3-.2.7-.4 1-.4h1.2L88.9 13h-2.4zM93.2 13.1l.2-11.9h2.7l-.7 8.9 5.2-8c.4-.6.9-.9 1.5-.9h1.8l-8.4 11.9h-2.3zM100.2 13.1l3.9-10.7c.1-.3.4-.6.7-.9.3-.2.7-.4 1-.4h7.4l-.7 2h-6.2l-.9 2.6h4.6l-.3.8c-.1.3-.4.6-.7.9-.3.2-.7.4-1 .4h-3.4l-1.1 3.1h6.2l-.8 2.2h-8.7zM14.3 13.1l3.9-10.7c.1-.3.4-.6.7-.9.3-.2.7-.4 1-.4h1.2l-1.6 4.4h4.9L26 1.1h2.5L24.2 13h-2.5l1.9-5.3h-4.9L16.8 13h-2.5zM31.6 13.1h-2.4l1.6-4.4-1.6-7.5h3l.7 5.1 3.6-4.4c.4-.5.9-.7 1.4-.7h2l-6.6 7.5-1.7 4.4zM40.9 6.6h2.4c.6 0 1.2-.1 1.5-.4.4-.3.7-.7.9-1.3.2-.5.2-1 .1-1.3-.2-.3-.6-.4-1.1-.4h-2.5l-1.3 3.4zm-.8 2.2l-1.6 4.3H36l4-10.7c.1-.3.4-.6.7-.9.3-.2.7-.4 1-.4h4.1c1.3 0 2.1.3 2.5 1 .4.6.4 1.6-.1 2.9-.4 1.2-1.1 2.2-2 2.8-.9.6-1.9 1-3.1 1h-3zM45.7 13.1l3.9-10.7c.1-.4.4-.7.7-.9.3-.2.7-.4 1-.4h7.4l-.7 2h-6.2l-.9 2.6h4.6l-.3.8c-.1.3-.4.6-.7.9-.3.2-.7.4-1 .4h-3.4L49 10.9h6.2l-.8 2.2h-8.7zM59.9 6.3h2.9c.6 0 1.1-.1 1.5-.4.4-.3.7-.6.9-1.2.2-.5.2-.9 0-1.2-.2-.2-.6-.3-1.2-.3h-3l-1.1 3.1zM55 13.1l3.9-10.7c.1-.4.3-.7.6-.9.3-.2.7-.4 1-.4H65c1.3 0 2.2.3 2.6.8.4.6.5 1.4.1 2.5-.3.7-.7 1.4-1.2 1.8-.4.5-1 .8-1.7 1 .5.2.7.5.8.8.1.3 0 .9-.3 1.8l-.3 1.6c-.1.1-.1.3-.2.5s-.1.3-.1.5c-.1.4 0 .7.1.8h-2.7c0-.2 0-.5.1-.7.1-.4.2-.6.2-.8l.4-1.3c.2-.8.2-1.3.1-1.6-.2-.3-.6-.4-1.2-.4h-2.6l-1.7 4.7H55z"/>
    <path fill="none" stroke="#575756" stroke-width=".5" stroke-miterlimit="10" d="M12.8 1.1l-.4 1-3.7 10c-.2.5-.8 1-1.4 1H4.7l.4-1 3.7-10c.2-.5.8-1 1.4-1h2.6z"/>
    <path fill="none" stroke="#E20613" stroke-width=".5" stroke-miterlimit="10" d="M17.4 1.1l-.4 1-3.7 10c-.2.5-.8 1-1.4 1H9.3l.4-1 3.7-10c.2-.5.8-1 1.4-1h2.6z"/>
</svg>
