<svg xmlns="http://www.w3.org/2000/svg" viewBox="0 0 800 600">
    <path fill="#4E6060" d="M400 600c-165.4 0-300-134.6-300-300S234.6 0 400 0s300 134.6 300 300-134.6 300-300 300z"/>
    <path fill="#1D2628" d="M531.7 232.6c-9.7 4.3-20.1 7.2-31 8.5 11.2-6.7 19.7-17.3 23.8-29.9-10.4 6.2-22 10.7-34.3 13.1-9.8-10.5-23.9-17.1-39.4-17.1-29.8 0-54 24.2-54 54 0 4.2.5 8.4 1.4 12.3-44.9-2.3-84.7-23.8-111.4-56.5-4.7 8-7.3 17.3-7.3 27.2 0 18.7 9.5 35.3 24 45-8.8-.3-17.2-2.7-24.5-6.7v.7c0 26.2 18.6 48 43.4 53-4.5 1.3-9.3 1.9-14.2 1.9-3.5 0-6.9-.3-10.2-1 6.9 21.5 26.8 37.1 50.5 37.5-18.5 14.5-41.8 23.1-67.1 23.1-4.4 0-8.7-.2-12.9-.7 23.9 15.3 52.3 24.3 82.8 24.3 99.4 0 153.8-82.3 153.8-153.8 0-2.3 0-4.7-.1-7 10.3-7.6 19.5-17.1 26.7-27.9"/>
</svg>
