<?xml version="1.0" encoding="utf-8"?>
<!-- Generator: Adobe Illustrator 18.0.0, SVG Export Plug-In . SVG Version: 6.00 Build 0)  -->
<!DOCTYPE svg PUBLIC "-//W3C//DTD SVG 1.1//EN" "http://www.w3.org/Graphics/SVG/1.1/DTD/svg11.dtd">
<svg version="1.1" id="Layer_1" xmlns="http://www.w3.org/2000/svg" xmlns:xlink="http://www.w3.org/1999/xlink" x="0px" y="0px"
	 width="68.9px" height="64.2px" viewBox="0 0 68.9 64.2" enable-background="new 0 0 68.9 64.2" xml:space="preserve">
<g>
	<g>
		<rect x="20.4" y="24.9" fill="none" width="21.2" height="24.5"/>
		<text transform="matrix(1 0 0 1 20.3807 43.2993)" fill="#FFFFFF" font-family="'bebas_neuebold'" font-size="26.2423">98</text>
	</g>
	<g>
		<rect x="41.4" y="25.1" fill="none" width="16.7" height="13.1"/>
		<text transform="matrix(1 0 0 1 41.3993 36.9842)" fill="#FFFFFF" font-family="'bebas_neueregular'" font-size="16.9305">%</text>
	</g>
</g>
<path fill="#DD2F26" d="M12.8,59.9c-1,0-2-0.4-2.7-1.1c-13.4-13.4-13.4-35.3,0-48.7c13.4-13.4,35.3-13.4,48.7,0
	c6.5,6.5,10.1,15.2,10.1,24.4c0,9.2-3.6,17.9-10.1,24.4c-1.5,1.5-4,1.5-5.5,0c-1.5-1.5-1.5-4,0-5.5c5-5,7.8-11.7,7.8-18.9
	c0-7.1-2.8-13.8-7.8-18.9C42.9,5.2,26,5.2,15.6,15.6s-10.4,27.3,0,37.8c1.5,1.5,1.5,4,0,5.5C14.8,59.6,13.8,59.9,12.8,59.9z"/>
<path fill="#FFFFFF" d="M58.7,10.1c-2.5-2.5-5.3-4.6-8.3-6.1c0,0,0,0,0,0c-0.4-0.2-0.9-0.4-1.3-0.6c-0.1,0-0.2-0.1-0.3-0.1
	c-0.4-0.2-0.7-0.3-1.1-0.5c-0.2-0.1-0.4-0.2-0.6-0.2c-0.3-0.1-0.5-0.2-0.8-0.3c-0.3-0.1-0.6-0.2-0.8-0.3c-0.2-0.1-0.4-0.1-0.6-0.2
	c-0.4-0.1-0.8-0.2-1.1-0.3c-0.1,0-0.2,0-0.3-0.1C30.7-2.3,16.3,1.9,7.5,13c-11.1,13.9-9.6,33.8,2.8,46c0.7,0.6,1.6,0.9,2.5,0.9
	c1,0,2-0.4,2.7-1.1c1.5-1.5,1.5-4,0-5.5C5.1,42.9,5.1,26,15.5,15.6c7.3-7.3,18-9.5,27.2-6.5c0.1,0,0.2,0.1,0.3,0.1
	c0.3,0.1,0.5,0.2,0.8,0.3c0.2,0.1,0.4,0.1,0.6,0.2c0.2,0.1,0.3,0.1,0.5,0.2c0.3,0.1,0.6,0.2,0.8,0.4c0.1,0,0.1,0.1,0.2,0.1
	c1.9,0.9,3.7,2,5.3,3.3c5.6,4.4,9.1,10.8,9.9,17.9c0.8,7.1-1.2,14.1-5.6,19.6c-1.3,1.7-1.1,4.1,0.6,5.5c1.4,1.2,3.5,1.1,4.9,0
	c5.2-6.2,8-13.9,8-22.1C68.8,25.2,65.2,16.6,58.7,10.1z"/>
<polygon fill="#3DB54A" points="34.7,54.9 27.6,64.2 41.7,64.2 "/>
</svg>
