<?xml version="1.0" encoding="utf-8"?>
<!-- Generator: Adobe Illustrator 18.0.0, SVG Export Plug-In . SVG Version: 6.00 Build 0)  -->
<!DOCTYPE svg PUBLIC "-//W3C//DTD SVG 1.1//EN" "http://www.w3.org/Graphics/SVG/1.1/DTD/svg11.dtd">
<svg version="1.1" id="Layer_1" xmlns="http://www.w3.org/2000/svg" xmlns:xlink="http://www.w3.org/1999/xlink" x="0px" y="0px"
	 width="51.8px" height="51.8px" viewBox="0 0 51.8 51.8" enable-background="new 0 0 51.8 51.8" xml:space="preserve">
<g opacity="0.8">
	<path fill="#B7B7B8" d="M28.7,3C16.1,1.5,4.6,10.5,3,23.1s7.5,24.2,20.1,25.7c12.6,1.5,24.2-7.5,25.7-20.1
		C50.4,16.1,41.3,4.6,28.7,3z M24.1,40.9c-8.3-1-14.2-8.6-13.2-16.8s8.6-14.2,16.8-13.2c8.3,1,14.2,8.6,13.2,16.8
		S32.3,41.9,24.1,40.9z"/>
	<path fill="#4D6060" d="M23.3,47.1C11.6,45.7,3.3,35,4.7,23.3s12.1-20,23.8-18.6s20,12.1,18.6,23.8C45.7,40.2,35,48.5,23.3,47.1z
		 M27.9,9.3c-9.2-1.1-17.6,5.4-18.7,14.6s5.4,17.6,14.6,18.7c9.2,1.1,17.6-5.4,18.7-14.6S37.1,10.4,27.9,9.3z"/>
	<g>
		<path fill="#D3D3D3" d="M6.5,24.9c4-0.3,6.4,4.1,3.9,7.3c-0.7,0.9-1.8,1.5-2.9,1.6c-4,0.3-6.4-4.1-3.9-7.3
			C4.3,25.5,5.4,25,6.5,24.9z"/>
		<path fill="#D3D3D3" d="M23.4,6.6c1,3.9-3,7-6.5,5.1c-1-0.5-1.8-1.5-2-2.6c-1-3.9,3-7,6.5-5.1C22.4,4.6,23.2,5.5,23.4,6.6z"/>
		<path fill="#D3D3D3" d="M11.6,12.7c3.3,2.4,2.2,7.3-1.7,8.1c-1.1,0.2-2.3,0-3.3-0.7c-3.3-2.4-2.2-7.3,1.7-8.1
			C9.5,11.7,10.7,12,11.6,12.7z"/>
		<path fill="#D3D3D3" d="M10.3,37.6c2.9-2.8,7.6-1,7.7,3.1c0,1.1-0.4,2.3-1.2,3.1c-2.9,2.8-7.6,1-7.7-3.1
			C9,39.5,9.5,38.4,10.3,37.6z"/>
		<path fill="#D3D3D3" d="M21.3,45.1c0.4-4,5.2-5.6,7.9-2.6c0.8,0.9,1.1,2,1,3.2c-0.4,4-5.2,5.6-7.9,2.6
			C21.6,47.4,21.2,46.2,21.3,45.1z"/>
		<path fill="#D3D3D3" d="M34.5,43.7c-2.3-3.4,0.4-7.6,4.4-7c1.1,0.2,2.2,0.8,2.8,1.8c2.3,3.4-0.4,7.6-4.4,7
			C36.2,45.2,35.1,44.6,34.5,43.7z"/>
		<path fill="#D3D3D3" d="M43.8,34.1c-3.9-1.1-4.6-6.1-1.2-8.2c1-0.6,2.2-0.8,3.3-0.5c3.9,1.1,4.6,6.1,1.2,8.2
			C46.1,34.2,44.9,34.4,43.8,34.1z"/>
		<path fill="#D3D3D3" d="M44.7,20.7c-3.7,1.7-7.4-1.7-6.2-5.5c0.4-1.1,1.2-2,2.2-2.5c3.7-1.7,7.4,1.7,6.2,5.5
			C46.6,19.3,45.7,20.3,44.7,20.7z"/>
		<path fill="#D3D3D3" d="M36.8,9.6c-1.8,3.6-6.8,3.5-8.3-0.3c-0.4-1.1-0.4-2.3,0.1-3.3c1.8-3.6,6.8-3.5,8.3,0.3
			C37.3,7.4,37.3,8.6,36.8,9.6z"/>
	</g>
	<path fill="#4D6060" d="M22.8,51.6C8.6,49.9-1.5,36.9,0.2,22.8S14.9-1.5,29.1,0.2s24.3,14.7,22.6,28.9S36.9,53.4,22.8,51.6z
		 M28.7,3.3C16.2,1.8,4.8,10.7,3.3,23.1S10.7,47,23.1,48.5c12.5,1.5,23.9-7.4,25.4-19.8C50.1,16.2,41.1,4.8,28.7,3.3z"/>
	<g>
		<path fill="#4D6060" d="M27.8,10.7c-8.4-1-16,4.9-17,13.3s4.9,16,13.3,17c8.4,1,16-4.9,17-13.3C42.1,19.4,36.1,11.8,27.8,10.7z
			 M24.6,36.9c-6.1-0.7-10.4-6.3-9.7-12.4c0.7-6.1,6.3-10.4,12.4-9.7c6.1,0.7,10.4,6.3,9.7,12.4C36.2,33.4,30.7,37.7,24.6,36.9z"/>
	</g>
</g>
</svg>
