<?xml version="1.0" encoding="utf-8"?>
<!-- Generator: Adobe Illustrator 18.0.0, SVG Export Plug-In . SVG Version: 6.00 Build 0)  -->
<!DOCTYPE svg PUBLIC "-//W3C//DTD SVG 1.1//EN" "http://www.w3.org/Graphics/SVG/1.1/DTD/svg11.dtd">
<svg version="1.1" id="Layer_1" xmlns="http://www.w3.org/2000/svg" xmlns:xlink="http://www.w3.org/1999/xlink" x="0px" y="0px"
	 width="54px" height="54px" viewBox="0 0 54 54" enable-background="new 0 0 54 54" xml:space="preserve">
<g opacity="0.5">
	<path fill="#8D9292" d="M27,53C12.6,53,1,41.4,1,27S12.6,1,27,1s26,11.6,26,26S41.4,53,27,53z M32.2,27c0-2.9-2.3-5.2-5.2-5.2
		s-5.2,2.3-5.2,5.2s2.3,5.2,5.2,5.2S32.2,29.9,32.2,27z"/>
	<path fill="#D3D3D3" d="M27,54C12.1,54,0,41.9,0,27S12.1,0,27,0c14.9,0,27,12.1,27,27S41.9,54,27,54z M27,2C13.2,2,2,13.2,2,27
		s11.2,25,25,25c13.8,0,25-11.2,25-25S40.8,2,27,2z M27,33.2c-3.4,0-6.2-2.8-6.2-6.2c0-3.4,2.8-6.2,6.2-6.2s6.2,2.8,6.2,6.2
		C33.2,30.4,30.4,33.2,27,33.2z M27,22.8c-2.3,0-4.2,1.9-4.2,4.2c0,2.3,1.9,4.2,4.2,4.2s4.2-1.9,4.2-4.2
		C31.2,24.7,29.3,22.8,27,22.8z"/>
</g>
</svg>
