<?xml version="1.0" encoding="utf-8"?>
<!-- Generator: Adobe Illustrator 18.0.0, SVG Export Plug-In . SVG Version: 6.00 Build 0)  -->
<!DOCTYPE svg PUBLIC "-//W3C//DTD SVG 1.1//EN" "http://www.w3.org/Graphics/SVG/1.1/DTD/svg11.dtd">
<svg version="1.1" id="Layer_1" xmlns="http://www.w3.org/2000/svg" xmlns:xlink="http://www.w3.org/1999/xlink" x="0px" y="0px"
	 width="87px" height="46.6px" viewBox="0 0 87 46.6" enable-background="new 0 0 87 46.6" xml:space="preserve">
<g>
	<path fill="#06A14B" d="M9.1,2.9C16.3,2.4,25,2.7,32,2.9c3.4,0.1,6.5,0.2,9.1,0.2c7.8,0,14.9,0.4,22,4.6c1.9,1.1,3.6,2.7,5.3,4.3
		c2,1.9,4,3.8,6.5,5c4.8,2.3,7.2,3.1,12.1,3.1c0,0,0.1,0,0.1,0l0-1c0,0-0.1,0-0.1,0c-4.7,0-7-0.7-11.7-3C73,15,71,13.1,69,11.3
		c-1.7-1.6-3.5-3.2-5.4-4.4c-7.3-4.4-14.5-4.7-22.5-4.7c-2.5,0-5.7-0.1-9-0.2C24.9,1.6,16.2,1.4,9,1.9L8.7,0L0.4,3.6l9,1.1L9.1,2.9z
		"/>
	<path fill="#06A14B" d="M81.7,25c-0.8,0.1-1.7,0.3-2.9,0.4c-4.2,0.5-7.6,2.6-10.9,5c-4.3,3-8.1,5.2-12.4,5.7
		c-3.4,0.4-6.9,0.4-10.3,0.3c-1.3,0-2.7,0-4,0L18,36.4c-1.6,0-5.4,0-9.2-0.2L9,34.4l-9,1.5L8.5,39l0.2-1.9c3.8,0.2,7.6,0.2,9.3,0.2
		l23.1-0.1c1.3,0,2.7,0,4,0c1.3,0,2.5,0,3.8,0c2.2,0,4.4-0.1,6.6-0.3c4.5-0.6,8.4-2.7,12.9-5.9c3.2-2.3,6.5-4.3,10.5-4.8
		c1.2-0.1,2.1-0.3,2.9-0.4c1.6-0.2,2.7-0.4,5.1-0.4c0,0,0.1,0,0.1,0l0-1c0,0-0.1,0-0.1,0C84.5,24.6,83.3,24.7,81.7,25z"/>
	<path fill="#06A14B" d="M74.8,29.6c-2.4,1.2-4.5,3.1-6.5,5c-1.7,1.6-3.4,3.2-5.3,4.3c-7.1,4.2-14.1,4.6-22,4.6
		c-2.5,0-5.7,0.1-9.1,0.2c-7.1,0.2-15.8,0.5-22.9,0l0.3-1.8l-9,1.1l8.4,3.6L9,44.7c2.9,0.2,6.1,0.3,9.3,0.3c4.7,0,9.5-0.2,13.8-0.3
		c3.4-0.1,6.5-0.2,9-0.2c8,0,15.2-0.4,22.5-4.7c2-1.2,3.7-2.8,5.4-4.4c1.9-1.8,3.9-3.7,6.2-4.8c4.7-2.3,7-3,11.7-3c0,0,0.1,0,0.1,0
		l0-1c0,0-0.1,0-0.1,0C82,26.5,79.6,27.3,74.8,29.6z"/>
	<path fill="#06A14B" d="M81.8,20.5c-0.8-0.1-1.7-0.3-2.9-0.4c-4-0.5-7.3-2.5-10.5-4.8C63.9,12.2,60,10,55.5,9.4
		c-3.5-0.4-7-0.4-10.4-0.3c-1.3,0-2.7,0-4,0L18,9.1c-1.3,0-5.3,0-9.3,0.2L8.5,7.4L0,10.6l9,1.5l-0.2-1.8c3.9-0.2,7.9-0.2,9.2-0.2
		l23.1,0.1c1.3,0,2.7,0,4,0c3.4-0.1,6.9-0.1,10.3,0.3c4.3,0.5,8.1,2.7,12.4,5.7c3.3,2.3,6.7,4.5,10.9,5c1.2,0.1,2.1,0.3,2.9,0.4
		c1.6,0.3,2.8,0.4,5.3,0.4c0,0,0.1,0,0.1,0l0-1C84.6,20.9,83.4,20.7,81.8,20.5z"/>
	<polygon fill="#06A14B" points="76.2,22.6 74.2,22.6 74.2,20.8 65.5,23.1 74.2,25.5 74.2,23.6 74.4,23.6 87,23.6 87,22.6 	"/>
</g>
<path fill="#8E9293" d="M64.9,20.4c-0.3-0.9-1.2-1.6-2.2-1.6h0v-1.3c0-0.3-0.2-0.5-0.5-0.5h-4.1c-0.3,0-0.5,0.2-0.5,0.5v1.1h-0.8
	c0.3,0,0.5-0.2,0.5-0.5v-3.1c0-0.3-0.2-0.5-0.5-0.5h-5.8c-0.3,0-0.5,0.2-0.5,0.5v3.1c0,0.3,0.2,0.5,0.5,0.5h-5
	c-0.1,0-0.2-0.1-0.2-0.2v-3c0-0.4-0.3-0.7-0.7-0.7H34.7c-0.4,0-0.7,0.3-0.7,0.7v3c0,0.1-0.1,0.2-0.2,0.2h-0.9c0.3,0,0.5-0.2,0.5-0.5
	v-3.1c0-0.3-0.2-0.5-0.5-0.5h-5.8c-0.3,0-0.5,0.2-0.5,0.5v3.1c0,0.3,0.2,0.5,0.5,0.5h-1.1c-0.1,0-0.2-0.1-0.2-0.2v-3
	c0-0.4-0.3-0.7-0.7-0.7h-2.1l-0.3-1.3h0.1c0.1,0,0.2-0.1,0.2-0.2c0-0.1-0.1-0.2-0.2-0.2h-0.1h-4.2h0c-0.1,0-0.2,0.1-0.2,0.2
	c0,0.1,0.1,0.2,0.2,0.2h0.1l0.3,1.3h-4.3c-0.4,0-0.7,0.3-0.7,0.7v3.4c0,0.3,0.2,0.6,0.5,0.7h-2.2c-0.3,0-0.5,0.2-0.5,0.5v1.1
	L10.6,22H9c-0.3,0-0.5,0.2-0.5,0.5v1.4c0,0.3,0.2,0.5,0.5,0.5h1.5l1.2,0.9v1.1c0,0.3,0.2,0.5,0.5,0.5h2.4c0,0,0,0-0.1,0
	c-0.4,0-0.7,0.3-0.7,0.7v3.4c0,0.4,0.3,0.7,0.7,0.7h4.3l-0.3,1.3h-0.1c-0.1,0-0.2,0.1-0.2,0.2c0,0.1,0.1,0.2,0.2,0.2h0h4.2h0.1
	c0.1,0,0.2-0.1,0.2-0.2c0-0.1-0.1-0.2-0.2-0.2h-0.1l0.3-1.3h2.1c0.4,0,0.7-0.3,0.7-0.7v-3c0-0.1,0.1-0.2,0.2-0.2h0.9
	c-0.2,0.1-0.3,0.2-0.3,0.4v3.1c0,0.3,0.2,0.5,0.5,0.5h5.8c0.3,0,0.5-0.2,0.5-0.5v-3.1c0-0.2-0.1-0.4-0.3-0.4h0.7
	c0.1,0,0.2,0.1,0.2,0.2v3c0,0.4,0.3,0.7,0.7,0.7h10.6c0.4,0,0.7-0.3,0.7-0.7v-3c0-0.1,0.1-0.2,0.2-0.2h4.8c-0.2,0.1-0.3,0.2-0.3,0.4
	v3.1c0,0.3,0.2,0.5,0.5,0.5h5.8c0.3,0,0.5-0.2,0.5-0.5v-3.1c0-0.2-0.1-0.4-0.3-0.4h0.6v1.1c0,0.3,0.2,0.5,0.5,0.5h4.1
	c0.3,0,0.5-0.2,0.5-0.5v-1.3h0c1,0,1.8-0.6,2.1-1.5c0-0.1,0-0.1-0.1-0.1h-0.4c0,0,0-0.1,0-0.1v-5.1c0,0,0,0,0,0h0.4
	C64.8,20.5,64.9,20.5,64.9,20.4z"/>
</svg>
