<?xml version="1.0" encoding="utf-8"?>
<!-- Generator: Adobe Illustrator 17.1.0, SVG Export Plug-In . SVG Version: 6.00 Build 0)  -->
<!DOCTYPE svg PUBLIC "-//W3C//DTD SVG 1.1//EN" "http://www.w3.org/Graphics/SVG/1.1/DTD/svg11.dtd">
<svg version="1.1" id="Layer_1" xmlns="http://www.w3.org/2000/svg" xmlns:xlink="http://www.w3.org/1999/xlink" x="0px" y="0px"
	 viewBox="0 0 88.6 48.4" enable-background="new 0 0 88.6 48.4" xml:space="preserve">
<g>
	<path d="M32.5,0L31,4L16.2,44.4c-0.8,2.2-3.4,4-5.7,4H0l1.5-4L16.3,4c0.8-2.2,3.4-4,5.7-4H32.5z"/>
	<path d="M51.2,0l-1.5,4L34.9,44.4c-0.8,2.2-3.4,4-5.7,4H18.7l1.5-4L35,4c0.8-2.2,3.4-4,5.7-4H51.2z"/>
	<path d="M69.9,0l-1.5,4L53.6,44.4c-0.8,2.2-3.4,4-5.7,4H37.4l1.5-4L53.7,4c0.8-2.2,3.4-4,5.7-4H69.9z"/>
	<path d="M88.6,0l-1.5,4L72.3,44.4c-0.8,2.2-3.4,4-5.7,4H56.1l1.5-4L72.4,4c0.8-2.2,3.4-4,5.7-4H88.6z"/>
</g>
</svg>
