<?xml version="1.0" encoding="UTF-8" standalone="no"?>
<!-- Generator: Adobe Illustrator 17.1.0, SVG Export Plug-In . SVG Version: 6.00 Build 0)  -->

<svg
   xmlns:dc="http://purl.org/dc/elements/1.1/"
   xmlns:cc="http://creativecommons.org/ns#"
   xmlns:rdf="http://www.w3.org/1999/02/22-rdf-syntax-ns#"
   xmlns:svg="http://www.w3.org/2000/svg"
   xmlns="http://www.w3.org/2000/svg"
   xmlns:sodipodi="http://sodipodi.sourceforge.net/DTD/sodipodi-0.dtd"
   xmlns:inkscape="http://www.inkscape.org/namespaces/inkscape"
   version="1.1"
   id="Layer_1"
   x="0px"
   y="0px"
   viewBox="0 0 80.265999 74.56514"
   enable-background="new 0 0 1170 75"
   xml:space="preserve"
   sodipodi:docname="icon-au-map-1.svg"
   width="80.265999"
   height="74.56514"
   inkscape:version="0.92.0 r"><metadata
     id="metadata9"><rdf:RDF><cc:Work
         rdf:about=""><dc:format>image/svg+xml</dc:format><dc:type
           rdf:resource="http://purl.org/dc/dcmitype/StillImage" /><dc:title></dc:title></cc:Work></rdf:RDF></metadata><defs
     id="defs7" /><sodipodi:namedview
     pagecolor="#ffffff"
     bordercolor="#666666"
     borderopacity="1"
     objecttolerance="10"
     gridtolerance="10"
     guidetolerance="10"
     inkscape:pageopacity="0"
     inkscape:pageshadow="2"
     inkscape:window-width="1920"
     inkscape:window-height="1020"
     id="namedview5"
     showgrid="false"
     fit-margin-top="0"
     fit-margin-left="0"
     fit-margin-right="0"
     fit-margin-bottom="0"
     inkscape:zoom="1"
     inkscape:cx="51.592332"
     inkscape:cy="-276.69396"
     inkscape:window-x="0"
     inkscape:window-y="24"
     inkscape:window-maximized="1"
     inkscape:current-layer="Layer_1"><inkscape:grid
       type="xygrid"
       id="grid3681"
       originx="-545.18619"
       originy="-0.1" /></sodipodi:namedview><path
     d="m 49.413809,13.665138 v 0 c -0.1,0 -0.2,0 -0.3,-0.1 -0.2,-0.2 -1.2,-2 -1.8,-2 -0.5,0 -1.2,0 -1.4,-0.2 -0.2,-0.2 -0.7,-0.8 -1.1,-1 -0.5,-0.3 -1.3,-0.4 -1.3,-0.7 0,-0.4 0.3,-0.9 0.5,-1.1 0.2,-0.2 0.8,-1.1 0.5,-1.5 -0.3,-0.3 -0.3,-0.5 -0.1,-0.7 0.2,-0.2 1,-0.5 1.1,-0.6 0.1,-0.2 0.1,-1.1 0.4,-1.3 0.3,-0.2 1,-0.5 0.9,-0.6 -0.2,-0.1 -1,-0.2 -1,-0.4 0,-0.3 0.4,-1 -0.2,-0.5 -0.6,0.5 -0.5,0.9 -0.6,0.8 -0.1,0 -0.3,0.5 -0.6,0.3 -0.3,-0.2 -0.3,-0.7 -0.6,-0.5 -0.3,0.2 -0.8,0.5 -1,0.4 -0.2,-0.2 -1.2,-0.9 -1.9,-1 -0.7,-0.1 -1.9,-0.3 -2,-0.4 -0.1,-0.1 -0.8,-1 -1.1,-1 -0.3,0 -1.1,0 -1.1,0 0,0 -1.2,-0.5 -1.1,-0.1 0.1,0.5 0.3,0.8 0.6,0.8 0.3,0 0.7,-0.1 0.8,0.2 0.1,0.3 0.5,0.5 0.5,0.7 0,0.2 0,0.4 -0.2,0.5 -0.2,0.1 -1.5,0.3 -1.8,0.2 -0.2,0 -0.9,-0.4 -1.1,-0.2 -0.2,0.1 -1,0.7 -1.1,1 -0.1,0.3 -1.4,1.4 -1.2,1.5 0.2,0.1 0.5,0.4 0.3,0.6 -0.2,0.1 -0.8,-0.1 -0.8,0.3 0,0.3 -0.2,1 -0.4,1.1 -0.2,0.1 -0.9,0.1 -0.6,0.4 0.2,0.3 1.1,1 0.9,1.1 -0.1,0.1 -0.2,0.7 -0.4,0.7 -0.2,0 -0.3,-0.1 -0.7,-0.2 -0.2,-0.1 -0.6,0 -0.9,0 -0.2,0 -0.4,0.1 -0.4,0.1 l -0.8,0.1 c 0,0 0,-0.3 -0.3,-0.5 -0.3,-0.2 -1,-0.8 -1,-1.2 0,-0.3 -1.4,-1 -2,-0.1 -0.6,0.9 -2.3,2.5 -2.4,2.5 -0.1,0 -0.6,0.4 -0.6,0.7 0,0.3 -1.2,-0.1 -1.5,0.2 -0.3,0.3 0.5,0.9 0.4,1.2 -0.1,0.3 -0.3,0.3 -0.3,0.5 0.1,0.3 0.6,0.4 0.4,0.6 -0.3,0.2 -1.1,0.9 -1.2,0.6 -0.2,-0.2 -0.2,-1.4 -0.6,-0.9 -0.4,0.5 -0.7,1.3 -0.3,1.7 0.4,0.4 0.4,0.7 0.4,1.1 0,0.3 0,1.6 -0.5,1 -0.6,-0.5 -1,-1.6 -1,-1.9 0,-0.3 -0.1,-1.4 -0.5,-0.9 -0.4,0.5 -1.1,1.4 -1.1,1.5 -0.1,0.1 0.2,1.6 0.3,1.9 0.2,0.3 0.5,0.4 0.1,0.8 -0.4,0.4 -1.1,0.1 -1.2,1 -0.2,0.9 0.1,1.8 -0.6,2.3 -0.7,0.5 -2.4,1.2 -3,1.4 -0.6,0.2 -1.5,-0.2 -1.7,0.3 -0.2,0.5 -0.1,1.1 -0.4,1 -0.2,0 -1.2,-0.3 -1.6,0.3 -0.5,0.5 -0.3,1.1 -0.8,1 -0.5,-0.1 -1.2,0 -1.4,-0.2 -0.2,-0.2 -0.2,-0.9 -0.4,-0.3 -0.3,0.5 -0.3,0.9 -0.8,1.2 -0.4,0.3 -2.5,2.3 -2.8,2.7 -0.3,0.4 -0.6,1.3 -0.8,1.2 -0.1,-0.1 0,-1.5 -0.20000001,-1.6 -0.2,-0.1 -0.1,1 -0.6,1.4 -0.5,0.3 -0.3,0.5 -0.1,0.8 0.2,0.3 0.6,0.7 0.5,0.9 -0.1,0.1 0.30000001,0.5 -0.1,1.1 -0.4,0.6 -0.3,1 -0.2,1.3 0.1,0.3 1.50000001,2.6 1.80000001,3.1 0.3,0.5 0.9,1.6 0.7,1.7 -0.2,0.1 -0.3,-0.1 -0.6,-0.3 -0.3,-0.2 -0.7,0.1 -0.5,0.3 0.1,0.2 -0.3,0.3 -0.4,0.5 -0.1,0.2 0.1,0.4 0.4,0.8 0.2,0.3 1.1,0.7 1.3,1.2 0.2,0.5 0.1,1 0.5,1.5 0.4,0.5 2.2,1.7 2.3,2.4 0.1,0.7 -0.3,1.2 0,1.6 0.3,0.4 0.6,0.2 0.8,0.6 0.2,0.4 1.1,1.9 1.2,2 0.1,0.1 0.5,0 0.7,-0.5 0.1,-0.6 0.6,-1.3 0.7,-1.1 0.1,0.2 0,0.7 0,0.8 -0.1,0.1 -0.1,0.5 -0.1,0.9 0,0.4 -0.1,0.9 -0.2,1.1 -0.1,0.2 -0.4,0.1 -0.1,0.6 0.3,0.5 0.3,0.9 0.3,0.9 0,0 -0.5,0.3 -0.3,0.7 0.2,0.4 0.3,0.8 0.2,1 0,0.2 -1.1,0.9 -0.9,1.2 0.2,0.3 0.6,1.3 0.7,1.4 0.2,0.1 1.6,0.1 1.7,0.3 0.2,0.2 0.2,0.6 0.5,0.7 0.3,0.1 0.6,-0.1 0.7,0.1 0.2,0.1 0.2,0.2 0.3,0.2 0.1,0 0.5,-0.3 0.5,-0.3 0,0 0.3,-0.5 0.4,-0.4 0.1,0.1 0.4,0.2 0.4,0.2 0.4,0.2 0.6,0.6 0.8,0.3 0.2,-0.3 1.6,-1.6 2,-1.7 0.4,0 0.5,-0.2 0.7,-0.5 0.2,-0.3 0.7,-1.3 1,-1.3 0.3,0 1,-0.1 1,-0.1 0,0 0.5,-0.5 1.1,-0.4 0.6,0.1 1.1,0.6 1.5,0.4 0.3,-0.2 1.3,-1.1 1.5,-0.8 0.3,0.3 0.4,0.6 0.7,0.5 0.2,-0.2 1.4,-0.8 1.6,-1.6 0.3,-0.8 0.1,-1.1 0.3,-1.2 0.2,-0.1 2.1,-1.4 2.4,-1.6 0.3,-0.2 0.8,-0.2 1,-0.2 0.2,0 1.4,0 1.6,-0.1 0.1,-0.1 1.2,-0.8 2.1,-1.3 0.6,-0.3 1.1,-0.6 1.3,-0.6 0.6,-0.1 1,0.3 1.2,0 0.2,-0.3 0.4,-0.4 0.6,-0.3 0.2,0.1 0.4,0.3 0.6,0.3 0.3,0 1.3,-0.4 1.6,-0.2 0.3,0.2 0.9,0.4 1.6,0.6 0.7,0.2 0.7,-0.3 1,0 0.3,0.3 0.6,0.3 0.7,0.4 0.1,0.1 0.6,-0.5 1.2,0.3 0.6,0.8 0.8,0.8 0.7,1.1 -0.1,0.3 0.2,0.7 0.3,0.7 0.2,0 0.7,0.4 0.9,0.6 0.2,0.2 1.1,2 1.1,2.4 0,0.4 0.1,1 0.3,1 0.2,0.1 0.6,0.2 0.6,0.2 0,0 1,-0.4 0.7,-0.8 -0.2,-0.4 -0.3,-0.5 -0.2,-0.7 0.1,-0.2 1,-1.2 1.1,-1.3 0.1,-0.1 0.6,-0.1 0.8,-0.3 0.2,-0.2 0.6,-1.3 0.8,-1.5 0.1,-0.1 0.4,-0.6 0.4,-0.8 0,-0.1 0.2,-0.1 0.2,0 0,0.1 0.2,0.7 0.1,0.8 -0.1,0.1 -0.2,0.6 -0.2,0.8 0,0.1 -0.2,1 -0.3,1.2 -0.1,0.3 -0.4,1 -0.3,1.3 0.1,0.3 0.3,0.3 0.1,0.5 -0.2,0.2 -0.7,0.4 -0.8,0.6 -0.1,0.2 0.1,0.8 0.3,0.6 0.2,-0.2 1.1,-0.7 1.2,-0.8 0.1,-0.2 0,-1 0.3,-1.4 0.3,-0.3 0.4,-0.3 0.4,-0.2 0.1,0.2 0.3,0 0.4,-0.1 0.1,-0.1 0.4,-0.1 0.5,0.3 0,0.4 -0.3,0.8 -0.5,1.1 -0.1,0.3 -0.1,0.7 -0.2,0.9 -0.1,0.2 -0.4,0.5 -0.3,0.7 0.1,0.1 0.3,0.1 0.5,0.3 0.2,0.2 0.7,0.6 0.8,0.5 0.1,-0.2 0.6,-1.4 0.7,-1.1 0.1,0.3 -0.1,0.8 0.1,1.1 0.2,0.3 0.8,0.3 0.8,0.9 0.1,0.5 0.6,1.7 0.5,1.9 -0.1,0.1 -0.2,0.3 0,0.7 0.1,0.2 0.4,0.6 0.6,0.9 v 0 c 0.3,0.4 0.6,0.8 0.7,0.8 0.1,0.1 0.6,0 0.8,0.2 0.2,0.2 0.5,0.4 0.6,0.4 0.2,0 1.5,-0.2 1.8,0.1 0.3,0.4 1,0.7 1.2,0.8 0.2,0.1 0.6,0.6 0.7,0.3 0.1,-0.3 0.3,-0.6 0.5,-0.7 0.2,-0.2 0.8,-1 1,-1.1 0.2,-0.1 0.7,-0.5 0.8,-0.2 0.2,0.3 0.4,0.4 0.2,0.6 -0.1,0.2 -0.5,0.4 -0.3,0.4 0.2,0 0.5,-0.5 0.7,-0.3 0.1,0.2 0.3,0.5 0.3,0.7 0,0.2 0.3,0.4 0.6,0.6 0.3,0.2 0.9,1 0.8,0.7 0,-0.2 -0.3,-0.9 0,-1 0.3,-0.2 0.8,-0.3 0.9,-0.4 0.1,-0.1 1,-1 1.3,-1.1 0.2,-0.1 1,-0.4 1.4,-0.3 0.4,0.1 1.4,0.1 1.4,0.1 l 0.2,-0.1 c 0,0 0.4,-0.1 0.5,-0.2 0.1,-0.1 0.2,-0.2 0.3,-0.3 0.1,-0.1 0.2,-0.2 0.2,-0.3 0.1,-0.2 0.3,-0.9 0.3,-1.3 0,-0.3 -0.1,-0.8 0.1,-1.2 0.2,-0.4 0.7,-1.6 1.1,-2.3 0.4,-0.7 0.6,-0.6 0.6,-1.1 0,-0.4 0.5,-2.5 1.2,-3.6 0.7,-1 2.2,-1.8 2.3,-2.1 0,-0.3 0.3,-1.1 0.4,-1.3 0.1,-0.2 0.6,-0.7 0.8,-1 0.2,-0.3 0.4,-0.6 0.4,-0.8 0,-0.2 -0.6,-0.2 -0.3,-0.9 0.3,-0.7 0.7,-1 0.7,-1.4 0,-0.3 0.3,-1.4 0.4,-1.6 0.1,-0.2 0.6,-0.7 0.7,-1 v 0 c 0.3,-0.6 -0.8,-1.2 -0.6,-1.8 0.1,-0.3 0.3,-1.1 0.3,-1.4 -0.1,-0.4 -0.6,0 -0.7,-0.3 -0.1,-0.3 -0.1,-1.3 0,-1.7 0.1,-0.4 0.3,-0.7 0.2,-1 -0.1,-0.3 -1.7,-3.3 -1.9,-3.5 -0.2,-0.2 -0.2,-0.7 -0.3,-0.8 -0.1,-0.2 -0.3,-0.1 -0.7,-0.5 -0.4,-0.4 -1.1,-1.2 -1.1,-1.7 0.1,-0.5 0,-1.4 -0.3,-1.6 -0.3,-0.2 -1,-1 -1.1,-0.5 0,0.5 -0.1,1 -0.4,0.8 -0.3,-0.3 -1,-1 -1,-1.4 0,-0.4 0,-1.9 -0.2,-2.2 -0.3,-0.3 -0.8,-0.7 -0.8,-0.9 0,-0.2 -0.2,-1 -0.4,-1.2 -0.2,-0.2 -1.4,-0.6 -1.6,-1 -0.3,-0.3 -0.4,-1.2 -0.6,-1 -0.2,0.2 -0.6,0.4 -0.7,0.1 -0.1,-0.2 -0.8,-0.2 -1.1,-0.6 -0.4,-0.4 -1.3,-1.8 -1.1,-2.1 0.2,-0.3 0.4,-0.9 0.2,-1.2 -0.1,-0.3 -0.2,-0.3 -0.4,-0.8 -0.2,-0.4 -1.1,-1.5 -1.1,-1.6 0,-0.2 0.4,-1.1 0.1,-1.6 -0.2,-0.4 -0.6,-0.4 -0.5,-0.8 0.1,-0.4 0,-1.4 -0.1,-1.6 -0.1,-0.2 -1.6,-1.7 -1.7,-1.6 -0.2,0.1 -1.1,0.9 -1.2,0.6 -0.2,-0.3 -0.8,-1.5 -0.7,-1.9 0.1,-0.4 0.1,-1.8 -0.2,-2 -0.2,-0.2 -1,-0.8 -0.9,-0.9 0.1,-0.1 0.2,-0.5 0.2,-0.6 -0.1,-0.1 -0.6,-0.7 -0.6,-0.8 0,-0.1 -0.1,-1.80000003 -0.5,-2.10000003 -0.3,-0.3 -1,0.5 -1,1.10000003 0,0.6 0.2,0.9 0,1.1 -0.2,0.2 -0.6,1 -0.4,1.4 0.1,0.5 0.2,0.8 0,1.1 -0.1,0.3 -0.5,1.4 -0.5,2 0,0.5 -0.2,1.9 0.2,2.4 0.4,0.4 0.3,0.6 0.2,0.9 -0.1,0.2 -0.5,0.7 -0.7,1.2 -0.2,0.5 -1.4,2.7 -1.3,2.9 0,0.2 0,0.8 -0.2,1 -0.2,0.1 -1.1,0.9 -1.8,0.6 -0.7,-0.3 -1.8,-1.9 -2.3,-2.1 -0.5,-0.2 -1.1,0 -1.5,0 z m 12.8,54.1 c 0,0.4 0.8,2.7 1,3 0.2,0.3 0.2,0.7 0,0.9 -0.1,0.2 -0.1,0.8 0,1.1 0.2,0.3 0.7,0.4 0.7,1 0,0.6 0.2,0.4 0.4,0.5 0.2,0.1 1.2,0.3 1.2,0.3 0,0 0.2,-0.6 0.3,-0.9 0,-0.3 0.7,-1.3 0.9,-1.1 0.1,0.2 0.3,0.8 0.3,0.8 l 0.3,-0.5 c 0,0 -0.1,-0.2 -0.1,-0.4 0,-0.2 0,-0.4 0.3,-0.7 0.3,-0.3 0.6,-0.5 0.6,-0.8 0,-0.3 0.2,-1.2 0,-1.5 -0.2,-0.3 -0.2,-0.6 -0.2,-0.7 0.1,-0.1 0.2,-0.3 0.1,-0.4 -0.2,-0.2 -0.7,-0.1 -0.9,0 -0.2,0.1 -1.5,0.6 -1.7,0.7 -0.2,0.2 -0.5,0.4 -0.8,0.1 -0.2,-0.3 -1.2,-1 -1.3,-1 0,-0.3 -1.1,-0.4 -1.1,-0.4 z"
     id="path2"
     inkscape:connector-curvature="0"
     style="clip-rule:evenodd;fill:#ffffff;fill-rule:evenodd" /></svg>