<?xml version="1.0" encoding="utf-8"?>
<!-- Generator: Adobe Illustrator 17.1.0, SVG Export Plug-In . SVG Version: 6.00 Build 0)  -->
<!DOCTYPE svg PUBLIC "-//W3C//DTD SVG 1.1//EN" "http://www.w3.org/Graphics/SVG/1.1/DTD/svg11.dtd">
<svg version="1.1" id="Layer_1" xmlns="http://www.w3.org/2000/svg" xmlns:xlink="http://www.w3.org/1999/xlink" x="0px" y="0px"
	 viewBox="0 0 800 600" enable-background="new 0 0 800 600" xml:space="preserve">
<g>
	<g>
		<g>
			<g>
				<path fill="#4E6060" d="M400,600c-165.4,0-300-134.6-300-300C100,134.6,234.6,0,400,0c165.4,0,300,134.6,300,300
					C700,465.4,565.4,600,400,600z"/>
			</g>
		</g>
		<g>
			<g>
				<path fill="#1D2628" d="M451.1,300.1l-86.2,50.7V249.5L451.1,300.1z M531.7,347.1v-94.2c0,0,0-45.4-45.4-45.4H313.7
					c0,0-45.4,0-45.4,45.4v94.2c0,0,0,45.4,45.4,45.4h172.6C486.3,392.5,531.7,392.5,531.7,347.1"/>
			</g>
		</g>
	</g>
</g>
</svg>
