<?xml version="1.0" encoding="utf-8"?>
<!-- Generator: Adobe Illustrator 17.1.0, SVG Export Plug-In . SVG Version: 6.00 Build 0)  -->
<!DOCTYPE svg PUBLIC "-//W3C//DTD SVG 1.1//EN" "http://www.w3.org/Graphics/SVG/1.1/DTD/svg11.dtd">
<svg version="1.1" id="Layer_1" xmlns="http://www.w3.org/2000/svg" xmlns:xlink="http://www.w3.org/1999/xlink" x="0px" y="0px"
	 viewBox="0 0 800 600" enable-background="new 0 0 800 600" xml:space="preserve">
<g>
	<path fill="#4E6060" d="M400,600c-165.4,0-300-134.6-300-300S234.6,0,400,0c165.4,0,300,134.6,300,300S565.4,600,400,600z"/>
	<path fill="#1D2628" d="M531.7,232.6c-9.7,4.3-20.1,7.2-31,8.5c11.2-6.7,19.7-17.3,23.8-29.9c-10.4,6.2-22,10.7-34.3,13.1
		c-9.8-10.5-23.9-17.1-39.4-17.1c-29.8,0-54,24.2-54,54c0,4.2,0.5,8.4,1.4,12.3c-44.9-2.3-84.7-23.8-111.4-56.5
		c-4.7,8-7.3,17.3-7.3,27.2c0,18.7,9.5,35.3,24,45c-8.8-0.3-17.2-2.7-24.5-6.7v0.7c0,26.2,18.6,48,43.4,53
		c-4.5,1.3-9.3,1.9-14.2,1.9c-3.5,0-6.9-0.3-10.2-1c6.9,21.5,26.8,37.1,50.5,37.5c-18.5,14.5-41.8,23.1-67.1,23.1
		c-4.4,0-8.7-0.2-12.9-0.7c23.9,15.3,52.3,24.3,82.8,24.3c99.4,0,153.8-82.3,153.8-153.8c0-2.3,0-4.7-0.1-7
		C515.3,252.9,524.5,243.4,531.7,232.6"/>
</g>
</svg>
