<?xml version="1.0" encoding="utf-8"?>
<!-- Generator: Adobe Illustrator 17.1.0, SVG Export Plug-In . SVG Version: 6.00 Build 0)  -->
<!DOCTYPE svg PUBLIC "-//W3C//DTD SVG 1.1//EN" "http://www.w3.org/Graphics/SVG/1.1/DTD/svg11.dtd">
<svg version="1.1" id="Layer_1" xmlns="http://www.w3.org/2000/svg" xmlns:xlink="http://www.w3.org/1999/xlink" x="0px" y="0px"
	 viewBox="0 0 113.2 14.2" enable-background="new 0 0 113.2 14.2" xml:space="preserve">
<g>
	<path fill="none" stroke="#9C9B9B" stroke-width="0.5" stroke-miterlimit="10" d="M8.3,1.1l-0.4,1
		l-3.7,10c-0.2,0.5-0.8,1-1.4,1H0.2l0.4-1l3.7-10c0.2-0.5,0.8-1,1.4-1H8.3z"/>
	<path fill="#FFFFFF" d="M75.1,7.1C74.6,8.5,74,9.5,73.3,10c-0.8,0.6-1.7,0.9-2.8,0.9h-2l2.8-7.7h2.3
		c1,0,1.6,0.3,1.9,0.9C75.7,4.8,75.6,5.8,75.1,7.1 M77.9,2.6c-0.5-1-1.7-1.5-3.6-1.5h-3.4c-0.3,0-0.7,0.1-1,0.4
		c-0.3,0.2-0.6,0.5-0.7,0.9l-3.4,9.4l-0.5,1.3h4c1.1,0,2-0.1,2.6-0.2c0.6-0.2,1.3-0.4,1.9-0.8c0.8-0.5,1.5-1.1,2.2-2
		c0.6-0.9,1.1-1.8,1.5-2.9C78.3,5.1,78.4,3.6,77.9,2.6"/>
	<path fill="#FFFFFF" d="M80.9,6.3h2.9c0.6,0,1.1-0.1,1.5-0.4c0.4-0.3,0.7-0.6,0.9-1.2
		c0.2-0.5,0.2-0.9,0-1.2c-0.2-0.3-0.5-0.4-1.1-0.4h-3L80.9,6.3z M76,13.1l3.9-10.7C80,2,80.3,1.7,80.6,1.5c0.3-0.2,0.7-0.4,1-0.4
		h4.5c1.3,0,2.2,0.3,2.6,0.8c0.4,0.6,0.5,1.4,0,2.5c-0.3,0.7-0.7,1.4-1.2,1.8c-0.4,0.5-1,0.8-1.7,1c0.5,0.2,0.7,0.5,0.8,0.8
		c0.1,0.3,0,0.9-0.3,1.8L86,11.4c-0.1,0.1-0.1,0.3-0.2,0.5c-0.1,0.2-0.1,0.3-0.1,0.5c-0.1,0.4,0,0.7,0.1,0.8h-2.7
		c0-0.2,0-0.5,0.1-0.7c0.1-0.4,0.2-0.6,0.2-0.8l0.4-1.3c0.2-0.7,0.2-1.2,0.1-1.5c-0.2-0.3-0.6-0.4-1.2-0.4h-2.6l-1.7,4.7H76z"/>
	<path fill="#FFFFFF" d="M86.5,13.1l3.8-10.7C90.4,2,90.7,1.7,91,1.5c0.3-0.2,0.7-0.4,1-0.4h1.2
		l-4.3,11.9H86.5z"/>
	<path fill="#FFFFFF" d="M93.2,13.1l0.2-11.9h2.7l-0.7,8.9l5.2-8c0.4-0.6,0.9-0.9,1.5-0.9h1.8l-8.4,11.9
		H93.2z"/>
	<path fill="#FFFFFF" d="M100.2,13.1l3.9-10.7c0.1-0.3,0.4-0.6,0.7-0.9c0.3-0.2,0.7-0.4,1-0.4h7.4
		l-0.7,2h-6.2l-0.9,2.6h4.6l-0.3,0.8c-0.1,0.3-0.4,0.6-0.7,0.9c-0.3,0.2-0.7,0.4-1,0.4h-3.4l-1.1,3.1h6.2l-0.8,2.2H100.2z"/>
	<path fill="#FFFFFF" d="M14.3,13.1l3.9-10.7c0.1-0.3,0.4-0.6,0.7-0.9c0.3-0.2,0.7-0.4,1-0.4h1.2
		l-1.6,4.4h4.9L26,1.1h2.5l-4.3,11.9h-2.5l1.9-5.3h-4.9l-1.9,5.3H14.3z"/>
	<path fill="#FFFFFF" d="M31.6,13.1h-2.4l1.6-4.4l-1.6-7.5h3l0.7,5.1l3.6-4.4c0.4-0.5,0.9-0.7,1.4-0.7h2
		l-6.6,7.5L31.6,13.1z"/>
	<path fill="#FFFFFF" d="M40.9,6.6h2.4c0.6,0,1.2-0.1,1.5-0.4c0.4-0.3,0.7-0.7,0.9-1.3
		c0.2-0.5,0.2-1,0.1-1.3c-0.2-0.3-0.6-0.4-1.1-0.4h-2.5L40.9,6.6z M40.1,8.8l-1.6,4.3h-2.5L40,2.4c0.1-0.3,0.4-0.6,0.7-0.9
		c0.3-0.2,0.7-0.4,1-0.4h4.1c1.3,0,2.1,0.3,2.5,1c0.4,0.6,0.4,1.6-0.1,2.9c-0.4,1.2-1.1,2.2-2,2.8c-0.9,0.6-1.9,1-3.1,1H40.1z"/>
	<path fill="#FFFFFF" d="M45.7,13.1l3.9-10.7C49.7,2,50,1.7,50.3,1.5c0.3-0.2,0.7-0.4,1-0.4h7.4l-0.7,2
		h-6.2l-0.9,2.6h4.6l-0.3,0.8c-0.1,0.3-0.4,0.6-0.7,0.9c-0.3,0.2-0.7,0.4-1,0.4h-3.4L49,10.9h6.2l-0.8,2.2H45.7z"/>
	<path fill="#FFFFFF" d="M59.9,6.3h2.9c0.6,0,1.1-0.1,1.5-0.4c0.4-0.3,0.7-0.6,0.9-1.2
		c0.2-0.5,0.2-0.9,0-1.2C65,3.3,64.6,3.2,64,3.2h-3L59.9,6.3z M55,13.1l3.9-10.7C59,2,59.2,1.7,59.5,1.5c0.3-0.2,0.7-0.4,1-0.4h4.5
		c1.3,0,2.2,0.3,2.6,0.8c0.4,0.6,0.5,1.4,0.1,2.5c-0.3,0.7-0.7,1.4-1.2,1.8c-0.4,0.5-1,0.8-1.7,1c0.5,0.2,0.7,0.5,0.8,0.8
		c0.1,0.3,0,0.9-0.3,1.8L65,11.4c-0.1,0.1-0.1,0.3-0.2,0.5c-0.1,0.2-0.1,0.3-0.1,0.5c-0.1,0.4,0,0.7,0.1,0.8h-2.7
		c0-0.2,0-0.5,0.1-0.7c0.1-0.4,0.2-0.6,0.2-0.8l0.4-1.3C63,9.6,63,9.1,62.9,8.8c-0.2-0.3-0.6-0.4-1.2-0.4h-2.6l-1.7,4.7H55z"/>
	<path fill="none" stroke="#575756" stroke-width="0.5" stroke-miterlimit="10" d="M12.8,1.1l-0.4,1
		l-3.7,10c-0.2,0.5-0.8,1-1.4,1H4.7l0.4-1l3.7-10c0.2-0.5,0.8-1,1.4-1H12.8z"/>
	<path fill="none" stroke="#E20613" stroke-width="0.5" stroke-miterlimit="10" d="M17.4,1.1l-0.4,1
		l-3.7,10c-0.2,0.5-0.8,1-1.4,1H9.3l0.4-1l3.7-10c0.2-0.5,0.8-1,1.4-1H17.4z"/>
</g>
</svg>
